<?xml version="1.0" encoding="UTF-8" standalone="no"?>
<!-- Created with Inkscape (http://www.inkscape.org/) -->

<svg
   xmlns:dc="http://purl.org/dc/elements/1.1/"
   xmlns:cc="http://creativecommons.org/ns#"
   xmlns:rdf="http://www.w3.org/1999/02/22-rdf-syntax-ns#"
   xmlns:svg="http://www.w3.org/2000/svg"
   xmlns="http://www.w3.org/2000/svg"
   xmlns:sodipodi="http://sodipodi.sourceforge.net/DTD/sodipodi-0.dtd"
   xmlns:inkscape="http://www.inkscape.org/namespaces/inkscape"
   width="459.36514mm"
   height="403.86578mm"
   viewBox="0 0 459.36514 403.86578"
   version="1.1"
   id="svg8"
   inkscape:version="0.92.3 (2405546, 2018-03-11)"
   sodipodi:docname="upm_caution.svg">
  <defs
     id="defs2" />
  <sodipodi:namedview
     id="base"
     pagecolor="#ffffff"
     bordercolor="#666666"
     borderopacity="1.0"
     inkscape:pageopacity="0.0"
     inkscape:pageshadow="2"
     inkscape:zoom="0.35"
     inkscape:cx="752.37725"
     inkscape:cy="438.39011"
     inkscape:document-units="mm"
     inkscape:current-layer="layer1"
     showgrid="false"
     fit-margin-top="1"
     fit-margin-left="1"
     fit-margin-right="1"
     fit-margin-bottom="1"
     inkscape:window-width="1920"
     inkscape:window-height="1016"
     inkscape:window-x="0"
     inkscape:window-y="27"
     inkscape:window-maximized="1" />
  <metadata
     id="metadata5">
    <rdf:RDF>
      <cc:Work
         rdf:about="">
        <dc:format>image/svg+xml</dc:format>
        <dc:type
           rdf:resource="http://purl.org/dc/dcmitype/StillImage" />
        <dc:title></dc:title>
      </cc:Work>
    </rdf:RDF>
  </metadata>
  <g
     inkscape:label="Calque 1"
     inkscape:groupmode="layer"
     id="layer1"
     transform="translate(266.72422,139.04175)">
    <path
       style="fill:#000000;stroke-width:0.62582618"
       d="m -212.60337,263.42429 c -20.40713,-2.18391 -38.15074,-14.72666 -47.23856,-33.39241 -4.4232,-9.08493 -5.88229,-15.5486 -5.88229,-26.05812 0,-9.97926 1.38896,-16.61129 5.16106,-24.64315 2.13063,-4.53669 170.094856,-285.58754 174.872396,-292.61014 2.80467,-4.12262 10.14804,-11.27841 14.78013,-14.40257 5.70158,-3.84549 13.43076,-7.30997 19.86487,-8.90409 7.84855,-1.94456 20.16195,-1.94025 28.0852,0.01 14.0265597,3.45225 27.3429997,12.69057 35.32656,24.50787 5.20966,7.71139 171.908824,286.69932 174.114994,291.39909 3.77147,8.03431 5.15993,14.66542 5.15993,24.64315 0,10.49408 -1.46147,16.98488 -5.84784,25.97179 -8.02871,16.44946 -21.03035,27.05403 -39.39326,32.13045 l -6.01974,1.66416 -174.292604,0.0774 c -95.860926,0.0426 -176.271806,-0.13441 -178.690846,-0.39328 z m 353.41703,-41.18362 c 4.09926,-2.01916 7.84833,-5.86726 9.77569,-10.03393 2.26834,-4.90381 2.30606,-11.50764 0.0924,-16.17113 -0.84707,-1.78445 -39.69986,-66.93911 -86.339554,-144.788154 -54.32854,-90.682917 -85.69897,-142.454558 -87.30276,-144.078583 -7.62051,-7.716653 -20.54911,-7.715273 -28.16218,0.0031 -1.60072,1.622843 -33.07831,53.57449 -87.302746,144.087313 -46.6397,77.852064 -85.49249,143.005384 -86.33954,144.785024 -1.22003,2.56328 -1.53635,4.21116 -1.52209,7.92942 0.0266,6.93942 2.9323,12.73748 8.19953,16.36143 5.60714,3.85782 -8.39743,3.59061 181.671766,3.46619 l 174.292594,-0.1141 z M -41.997334,182.98534 c -4.38549,-1.22063 -6.93988,-2.8342 -10.01226,-6.32461 -4.46309,-5.07034 -5.814,-12.64867 -3.49706,-19.61775 1.57453,-4.73601 6.82348,-9.99491 11.5871,-11.60905 7.68828,-2.60516 15.09255,-0.93488 20.69614,4.66871 7.87961,7.87961 7.87961,19.75688 0,27.63648 -5.18434,5.18435 -12.07655,7.11032 -18.77392,5.24622 z m 0,-80.10576 c -4.38549,-1.22062 -6.93988,-2.83419 -10.01226,-6.324604 -4.90404,-5.57129 -4.74558,-3.80848 -4.74558,-52.79273 0,-50.4000303 -0.29789,-47.6779503 5.89528,-53.87111 7.92613,-7.92613 19.71036,-7.92613 27.63648,0 6.19317,6.1931597 5.89529,3.4710797 5.89529,53.87111 0,50.40003 0.29788,47.67795 -5.89529,53.87112 -5.18434,5.184354 -12.07655,7.110324 -18.77392,5.246214 z"
       id="path826"
       inkscape:connector-curvature="0" />
  </g>
</svg>
