<?xml version="1.0" encoding="UTF-8" standalone="no"?>
<!-- Created with Inkscape (http://www.inkscape.org/) -->

<svg
   xmlns:dc="http://purl.org/dc/elements/1.1/"
   xmlns:cc="http://creativecommons.org/ns#"
   xmlns:rdf="http://www.w3.org/1999/02/22-rdf-syntax-ns#"
   xmlns:svg="http://www.w3.org/2000/svg"
   xmlns="http://www.w3.org/2000/svg"
   xmlns:sodipodi="http://sodipodi.sourceforge.net/DTD/sodipodi-0.dtd"
   xmlns:inkscape="http://www.inkscape.org/namespaces/inkscape"
   width="483.41724mm"
   height="483.58493mm"
   viewBox="0 0 483.41724 483.58493"
   version="1.1"
   id="svg8"
   inkscape:version="0.92.3 (2405546, 2018-03-11)"
   sodipodi:docname="upm_info.svg">
  <defs
     id="defs2" />
  <sodipodi:namedview
     id="base"
     pagecolor="#ffffff"
     bordercolor="#666666"
     borderopacity="1.0"
     inkscape:pageopacity="0.0"
     inkscape:pageshadow="2"
     inkscape:zoom="0.35"
     inkscape:cx="786.40841"
     inkscape:cy="738.47373"
     inkscape:document-units="mm"
     inkscape:current-layer="layer1"
     showgrid="false"
     fit-margin-top="1"
     fit-margin-left="1"
     fit-margin-right="1"
     fit-margin-bottom="1"
     inkscape:window-width="1920"
     inkscape:window-height="1016"
     inkscape:window-x="0"
     inkscape:window-y="27"
     inkscape:window-maximized="1" />
  <metadata
     id="metadata5">
    <rdf:RDF>
      <cc:Work
         rdf:about="">
        <dc:format>image/svg+xml</dc:format>
        <dc:type
           rdf:resource="http://purl.org/dc/dcmitype/StillImage" />
        <dc:title></dc:title>
      </cc:Work>
    </rdf:RDF>
  </metadata>
  <g
     inkscape:label="Calque 1"
     inkscape:groupmode="layer"
     id="layer1"
     transform="translate(275.7283,139.36375)">
    <path
       style="fill:#000000;stroke-width:0.94228286"
       d="M -50.629174,342.63035 C -148.23295,335.6258 -231.66491,270.94797 -262.44275,178.42896 c -13.72051,-41.24422 -16.01412,-86.353786 -6.55164,-128.854516 14.61802,-65.65686 56.78878,-122.656827 115.77775,-156.490604 51.23814,-29.38821 113.509446,-38.7035 171.966626,-25.72484 65.35134,14.50931 122.724244,56.898004 156.323384,115.496065 29.53965,51.518189 38.88881,113.716409 25.89205,172.255055 C 187.74026,214.67757 150.67357,268.6707 99.786306,302.4925 55.206316,332.12222 1.7426262,346.38883 -50.629174,342.63035 Z M 1.7888862,310.71155 C 90.655376,294.58538 158.39702,226.83612 174.33204,138.14903 176.82229,124.28935 177.75515,95.574844 176.19823,80.705324 165.8096,-18.51181 88.446736,-96.298711 -11.307384,-107.82805 c -14.32949,-1.65617 -44.71464,-0.70735 -58.72313,1.83371 -88.725516,16.094288 -156.229676,83.59845 -172.323966,172.323964 -2.54106,14.00849 -3.48988,44.393636 -1.83371,58.723136 5.62974,48.70962 26.59842,92.35266 60.8347,126.61795 33.57995,33.6084 77.34927,54.90662 124.836276,60.74555 12.49887,1.53685 47.96805,0.53421 60.3061002,-1.70471 z M -72.180314,222.05146 c -5.84584,-1.09145 -8.3517,-2.4051 -11.561623,-6.06101 -5.72662,-6.52227 -6.122841,-14.84656 -1.564029,-32.85907 2.988384,-11.80753 6.517502,-21.47779 23.878282,-65.42978 7.81983,-19.797306 14.21787,-37.076416 14.21787,-38.398026 0,-2.89548 -3.35806,-6.53144 -5.33249,-5.77378 -0.77969,0.2992 -1.94629,0.544 -2.59243,0.544 -2.98701,0 -11.02384,6.93723 -20.09923,17.34926 -10.479228,12.022606 -13.223316,14.391016 -15.611805,13.474466 -5.25969,-2.01833 -3.06198,-7.989866 7.276694,-19.771926 18.025341,-20.54187 36.562011,-31.87892 56.704351,-34.68047 8.94164,-1.24366 14.34434,-0.5838 20.8810302,2.55033 8.9149,4.2744 12.44687,14.77514 9.69678,28.82902 -0.99107,5.06472 -12.83123,38.496196 -31.0451802,87.658136 -5.07705,13.70363 -5.89677,19.26179 -3.23353,21.92503 3.93427,3.93427 11.28544,-1.04288 26.5802802,-17.99635 10.23477,-11.34466 12.58354,-12.99952 15.0086098,-10.57445 3.52307,3.52307 -1.3112798,12.59349 -13.3445798,25.03766 -22.9692802,23.75357 -51.3418102,37.63419 -69.8590002,34.17696 z m 56.16454,-189.094266 c -14.58873,-7.26987 -16.60484,-29.0672942 -3.86671,-41.8054222 13.9393902,-13.9393878 37.00993,-11.0148908 44.06881,5.586296 2.21956,5.22003 1.88071,15.5571272 -0.70558,21.5244162 -2.69677,6.222195 -10.50783,13.5736 -16.6437098,15.66431 -7.10534001,2.42104 -16.8810102,2.00627 -22.8528102,-0.9696 z"
       id="path826"
       inkscape:connector-curvature="0" />
  </g>
</svg>
