<?xml version="1.0" encoding="UTF-8" standalone="no"?>
<!-- Created with Inkscape (http://www.inkscape.org/) -->

<svg
   xmlns:dc="http://purl.org/dc/elements/1.1/"
   xmlns:cc="http://creativecommons.org/ns#"
   xmlns:rdf="http://www.w3.org/1999/02/22-rdf-syntax-ns#"
   xmlns:svg="http://www.w3.org/2000/svg"
   xmlns="http://www.w3.org/2000/svg"
   xmlns:sodipodi="http://sodipodi.sourceforge.net/DTD/sodipodi-0.dtd"
   xmlns:inkscape="http://www.inkscape.org/namespaces/inkscape"
   width="272.62253mm"
   height="272.69568mm"
   viewBox="0 0 272.62253 272.69568"
   version="1.1"
   id="svg8"
   inkscape:version="0.92.3 (2405546, 2018-03-11)"
   sodipodi:docname="upm_question.svg">
  <defs
     id="defs2" />
  <sodipodi:namedview
     id="base"
     pagecolor="#ffffff"
     bordercolor="#666666"
     borderopacity="1.0"
     inkscape:pageopacity="0.0"
     inkscape:pageshadow="2"
     inkscape:zoom="0.7"
     inkscape:cx="284.24507"
     inkscape:cy="557.15914"
     inkscape:document-units="mm"
     inkscape:current-layer="layer1"
     showgrid="false"
     fit-margin-top="1"
     fit-margin-left="1"
     fit-margin-right="1"
     fit-margin-bottom="1"
     inkscape:window-width="1920"
     inkscape:window-height="1016"
     inkscape:window-x="0"
     inkscape:window-y="27"
     inkscape:window-maximized="1" />
  <metadata
     id="metadata5">
    <rdf:RDF>
      <cc:Work
         rdf:about="">
        <dc:format>image/svg+xml</dc:format>
        <dc:type
           rdf:resource="http://purl.org/dc/dcmitype/StillImage" />
        <dc:title></dc:title>
      </cc:Work>
    </rdf:RDF>
  </metadata>
  <g
     inkscape:label="Calque 1"
     inkscape:groupmode="layer"
     id="layer1"
     transform="translate(82.263126,11.644881)">
    <path
       style="fill:#000000;stroke-width:0.26458332"
       d="m 47.696668,259.83414 c -53.2068575,-2.50997 -99.768707,-35.83013 -119.592857,-85.58191 -10.87333,-27.2883 -12.3394,-58.55107 -4.08835,-87.180208 6.35254,-22.041762 17.96837,-41.669022 34.37821,-58.088835 21.37988,-21.3928775 48.4781595,-34.7253809 78.45901,-38.6022619 10.57707,-1.3677421 23.818756,-1.3677421 34.395829,0 29.89096,3.865258 57.06573,17.2143174 78.32385,38.4750189 14.21716,14.218887 24.74675,30.620937 31.59834,49.221067 9.68204,26.283999 10.82247,56.070249 3.18588,83.210629 -13.78275,48.98375 -54.38371,86.46101 -104.157021,96.14355 -7.278023,1.41581 -12.464017,2.02753 -20.460424,2.41345 -5.734372,0.27673 -5.95754,0.27654 -12.042467,-0.0106 z m 13.100801,-17.1949 c 36.472887,-2.16696 69.087171,-20.41893 90.287381,-50.52764 4.57375,-6.49567 9.66356,-15.92252 12.71417,-23.54791 12.50792,-31.26516 11.05543,-66.66762 -3.9666,-96.68055 -4.15086,-8.293118 -9.3939,-16.257772 -15.51756,-23.572575 C 141.45109,44.889743 133.27988,36.789707 129.72142,33.844244 102.4261,11.25089 67.362146,2.0589791 32.619341,8.3892255 12.849791,11.991298 -5.6954795,20.677504 -21.487939,33.731923 c -3.65673,3.022738 -11.80419,11.088814 -14.72573,14.578642 -27.3699,32.69377 -35.23711,76.390085 -20.9576,116.403355 9.19158,25.75615 27.93914,48.19964 51.9551995,62.19775 19.8162305,11.55018 43.0712805,17.09064 66.0135385,15.72757 z M 41.350595,190.5241 v -14.81667 h 14.816666 14.816665 v 14.81667 14.81667 H 56.167261 41.350595 Z m 0.0083,-34.99114 c 0.01468,-11.40727 1.317902,-18.13398 4.816347,-24.85992 3.258116,-6.2639 9.041895,-12.42289 21.236857,-22.61458 8.492331,-7.09729 13.036478,-11.248854 14.510549,-13.256938 2.629585,-3.58222 3.877989,-7.514201 3.877989,-12.214151 0,-5.697254 -1.732084,-10.008327 -5.744389,-14.297511 -5.60139,-5.987925 -13.707874,-8.848492 -23.756651,-8.383103 -8.213103,0.380376 -14.533218,2.898172 -19.833516,7.901239 -4.52386,4.270176 -7.34469,9.27224 -9.55034,16.935277 -0.51121,1.776079 -0.96859,3.26835 -1.0164,3.316158 -0.0478,0.04781 -0.90684,-0.03297 -1.90896,-0.179502 -1.00212,-0.146536 -7.29891,-0.927512 -13.9928605,-1.735505 -6.69396,-0.807992 -12.45352,-1.53112 -12.79903,-1.606949 -0.6121,-0.13434 -0.62347,-0.186661 -0.44402,-2.042808 0.84075,-8.696415 4.09672005,-17.077285 9.43042,-24.273885 1.94824,-2.628707 6.4672905,-7.345351 9.1285605,-9.527704 6.16061,-5.052002 13.69744,-8.821935 21.88403,-10.946455 14.294481,-3.709588 33.357741,-2.837921 46.720577,2.136301 5.68738,2.117085 12.154873,5.926008 16.438422,9.681142 9.33319,8.181831 14.59731,17.045373 16.30313,27.450643 0.60341,3.680675 0.54209,10.001533 -0.13014,13.413864 -2.33014,11.828257 -8.65027,20.065057 -28.43589,37.059477 -7.810084,6.7083 -9.259411,8.05632 -11.85419,11.02559 -4.216066,4.82455 -5.380249,8.59564 -5.703308,18.47452 L 70.37385,161.9491 H 55.862222 41.350595 Z"
       id="path826"
       inkscape:connector-curvature="0" />
  </g>
</svg>
